<svg xmlns="http://www.w3.org/2000/svg" viewBox="0 0 70 70">
  <path style="stroke:none;fill-rule:nonzero;fill:#000;fill-opacity:1" d="M35 11.45c6.5 0 12.39 2.636 16.652 6.898A23.476 23.476 0 0 1 58.551 35c0 6.5-2.637 12.39-6.899 16.652A23.476 23.476 0 0 1 35 58.551c-6.5 0-12.39-2.637-16.652-6.899A23.482 23.482 0 0 1 11.449 35c0-6.5 2.637-12.39 6.899-16.652A23.482 23.482 0 0 1 35 11.449Zm12.89 27.573a.868.868 0 0 1 1.079-.582.869.869 0 0 1 .582 1.075c-.778 2.578-2.07 4.707-3.64 6.355-1.724 1.797-3.79 3.008-5.891 3.555a.87.87 0 0 1-1.055-.621.864.864 0 0 1 .62-1.055c1.806-.469 3.583-1.516 5.075-3.078 1.39-1.445 2.535-3.348 3.23-5.649ZM35 0c9.668 0 18.418 3.918 24.746 10.254C66.082 16.59 70 25.34 70 35c0 9.668-3.918 18.418-10.254 24.746C53.41 66.082 44.66 70 35 70c-9.668 0-18.418-3.918-24.746-10.254C3.918 53.418 0 44.668 0 35s3.918-18.418 10.254-24.746C16.582 3.918 25.332 0 35 0Zm23.129 11.871A32.574 32.574 0 0 0 35 2.29c-9.035 0-17.21 3.664-23.129 9.582A32.574 32.574 0 0 0 2.29 35c0 9.035 3.664 17.21 9.582 23.129C17.79 64.047 25.973 67.71 35 67.71c9.035 0 17.21-3.664 23.129-9.582C64.047 52.21 67.71 44.027 67.71 35c0-9.035-3.656-17.21-9.582-23.129Zm-7.867 7.867c-3.91-3.906-9.305-6.324-15.262-6.324a21.515 21.515 0 0 0-15.262 6.324c-3.906 3.91-6.324 9.305-6.324 15.262 0 5.957 2.418 11.36 6.324 15.262 3.91 3.906 9.305 6.324 15.262 6.324 5.957 0 11.36-2.418 15.262-6.324 3.906-3.91 6.324-9.305 6.324-15.262 0-5.957-2.418-11.36-6.324-15.262Zm0 0"/>
</svg>
