<svg xmlns="http://www.w3.org/2000/svg" viewBox="0 0 70 70">
  <path style="stroke:none;fill-rule:nonzero;fill:#000;fill-opacity:1" d="M51.875 18.29c-2.219-1.993-4.48-2.685-5.59-2.919V6.387l1.633-1.563a2.006 2.006 0 0 0 1.707-1.98v-.84A2.006 2.006 0 0 0 47.621 0H22.387a2.006 2.006 0 0 0-2.004 2.004v.84c0 1 .738 1.828 1.699 1.976l1.633 1.567v8.984c-1.11.234-3.375.926-5.59 2.918-2.754 2.473-5.96 7.516-5.629 17.5.332 9.824 3.406 17.91 5.926 22.965 2.008 4.023 3.957 6.773 4.894 8.004a1.87 1.87 0 0 0-.582 1.355c0 1.043.848 1.887 1.887 1.887H45.38c1.039 0 1.887-.844 1.887-1.887 0-.531-.227-1.011-.582-1.355.937-1.23 2.886-3.98 4.894-8.004 2.52-5.055 5.594-13.14 5.926-22.965.332-9.984-2.875-15.027-5.629-17.5ZM22.387 3.32a.476.476 0 0 1-.477-.476v-.84c0-.266.215-.477.477-.477H47.62c.262 0 .477.211.477.477v.84a.476.476 0 0 1-.477.476Zm2.855 8.13V9.347h19.516v2.101Zm19.516 1.527v2.28H25.242v-2.28ZM25.242 7.82V6.06a.76.76 0 0 0-.238-.551l-.688-.66h21.368l-.688.66a.76.76 0 0 0-.238.55V7.82Zm-6.168 11.668c2.531-2.312 5.176-2.675 5.442-2.707H45.48c.278.035 2.915.399 5.446 2.707 1.558 1.422 2.765 3.301 3.613 5.586-1.144.344-1.883 1.055-2.55 1.703-.856.825-1.532 1.48-2.973 1.48-1.446 0-2.121-.655-2.977-1.48-.922-.898-1.973-1.914-4.031-1.914-2.063 0-3.11 1.016-4.035 1.914-.856.825-1.532 1.48-2.973 1.48-1.445 0-2.117-.655-2.973-1.48-.925-.898-1.976-1.914-4.035-1.914-2.062 0-3.11 1.016-4.035 1.914-.855.825-1.531 1.48-2.973 1.48-1.441 0-2.117-.655-2.972-1.48-.668-.648-1.407-1.359-2.551-1.703.844-2.285 2.055-4.164 3.613-5.586Zm-4.09 7.035c.817.239 1.36.758 1.965 1.348.926.895 1.977 1.91 4.035 1.91 2.063 0 3.11-1.011 4.036-1.91.855-.828 1.527-1.48 2.972-1.48 1.442 0 2.117.652 2.973 1.48.926.899 1.973 1.91 4.035 1.91 2.059 0 3.11-1.011 4.031-1.91.856-.828 1.532-1.48 2.977-1.48 1.441 0 2.117.652 2.972 1.48.922.899 1.973 1.91 4.036 1.91 2.058 0 3.109-1.011 4.03-1.91.61-.586 1.153-1.105 1.97-1.344.468 1.649.773 3.473.906 5.461-1.598.223-2.512 1.078-3.328 1.848-.844.797-1.574 1.488-3.086 1.488-1.512 0-2.25-.691-3.106-1.492-.953-.89-2.035-1.902-4.148-1.902-2.117 0-3.195 1.011-4.149 1.902-.855.8-1.593 1.492-3.105 1.492-1.516 0-2.254-.691-3.11-1.492-.953-.89-2.03-1.902-4.144-1.902-2.117 0-3.195 1.011-4.148 1.902-.856.8-1.594 1.492-3.11 1.492-1.508 0-2.238-.691-3.082-1.488-.816-.77-1.73-1.625-3.328-1.844.133-1.992.438-3.82.906-5.469Zm30.395 41.95H24.62a.358.358 0 1 1 0-.715H45.38a.358.358 0 1 1 0 .715Zm-.223-2.243H24.844c-.516-.656-1.895-2.484-3.504-5.289h27.332c-1.61 2.797-2.996 4.633-3.516 5.29Zm4.364-6.812H20.496c-.21-.398-.422-.813-.637-1.238h30.297c-.215.425-.426.84-.636 1.238Zm1.375-2.766H19.12c-1.973-4.238-3.875-9.687-4.7-16.027.942.215 1.571.77 2.263 1.398.984.887 2.093 1.895 4.16 1.895 2.074 0 3.133-1.016 4.066-1.91.863-.828 1.547-1.485 3.012-1.485 1.46 0 2.144.657 3.012 1.485.93.894 1.988 1.91 4.066 1.91 2.074 0 3.133-1.016 4.066-1.91.864-.828 1.547-1.485 3.012-1.485 1.461 0 2.145.657 3.012 1.485.933.894 1.992 1.91 4.066 1.91 2.063 0 3.176-1.008 4.16-1.895.696-.628 1.317-1.187 2.258-1.402-.851 6.54-2.832 12.05-4.68 16.031Zm5.082-20.914a52.401 52.401 0 0 1-.22 3.301c-1.632.2-2.6 1.07-3.464 1.852-.89.804-1.66 1.5-3.137 1.5-1.465 0-2.144-.657-3.011-1.485C45.21 40.012 44.152 39 42.078 39c-2.078 0-3.137 1.012-4.066 1.906-.867.828-1.551 1.485-3.012 1.485-1.465 0-2.148-.657-3.012-1.485-.933-.894-1.992-1.906-4.066-1.906-2.078 0-3.137 1.012-4.07 1.906-.864.828-1.547 1.485-3.008 1.485-1.477 0-2.246-.696-3.137-1.5-.863-.782-1.832-1.653-3.465-1.848a52.724 52.724 0 0 1-.219-3.305 38.242 38.242 0 0 1-.011-2.215c1.031.188 1.652.77 2.343 1.422.946.895 2.02 1.907 4.137 1.907 2.113 0 3.195-1.012 4.149-1.903.851-.8 1.59-1.492 3.105-1.492 1.512 0 2.25.691 3.106 1.492.953.89 2.03 1.903 4.148 1.903 2.113 0 3.195-1.012 4.148-1.903.856-.8 1.594-1.492 3.106-1.492 1.512 0 2.25.691 3.105 1.492.953.89 2.036 1.903 4.149 1.903 2.117 0 3.187-1.012 4.133-1.907.695-.656 1.312-1.234 2.347-1.422.016.72.016 1.457-.011 2.215Zm0 0"/>
</svg>
