<svg aria-hidden="true" style="position: absolute; width: 0; height: 0; overflow: hidden;" version="1.1" xmlns="http://www.w3.org/2000/svg" xmlns:xlink="http://www.w3.org/1999/xlink">
<defs>
<symbol id="icon-check" viewBox="0 0 34 32">
<path fill="#fff" style="fill: var(--color1, #fff)" d="M13.858 21.999l-5.564-5.308-1.894 1.794 7.458 7.115 16.009-15.273-1.882-1.794-14.127 13.466z"></path>
</symbol>
<symbol id="icon-cart" viewBox="0 0 32 32">
<path d="M9.606 21.069h17.632c2 0 3.63-1.632 3.63-3.632v-7.493c0-0.013 0-0.026-0.006-0.038 0-0.011-0.006-0.032-0.006-0.043 0-0.013-0.006-0.026-0.006-0.037-0.006-0.013-0.006-0.026-0.013-0.045-0.005-0.013-0.005-0.024-0.011-0.037s-0.006-0.026-0.013-0.038c-0.007-0.012-0.013-0.026-0.019-0.041l-0.001-0.002c-0.006-0.013-0.013-0.026-0.019-0.032-0.219-0.498-0.225-0.51-0.231-0.522l0.214 0.486-0.019-0.032c-0.006-0.011-0.019-0.024-0.026-0.037s-0.014-0.023-0.024-0.032l-0-0c-0.006-0.011-0.019-0.018-0.026-0.030s-0.019-0.019-0.026-0.032c-0.005-0.011-0.018-0.018-0.024-0.024l-0.032-0.032c-0.013-0.006-0.018-0.018-0.032-0.024-0.011-0.006-0.024-0.019-0.037-0.026l-0.032-0.019c-0.011-0.006-0.024-0.011-0.037-0.024l-0.037-0.019c0.219 0.101 0.207 0.094 0.194 0.088l-0.232-0.107-0.037-0.018c-0.013-0.006-0.026-0.006-0.038-0.013s-0.027-0.011-0.043-0.013l-0-0c-0.013 0-0.024-0.006-0.032-0.006-0.018-0.006-0.030-0.006-0.048-0.006-0.008 0-0.013-0.006-0.026-0.006l-22.387-3.125v-3.12c0-0.030 0-0.067-0.006-0.093 0-0.006 0-0.011-0.006-0.024 0-0.019-0.006-0.038-0.006-0.056l-0.013-0.051c0-0.013-0.006-0.018-0.006-0.032l-0.019-0.054-0.005-0.026c-0.006-0.019-0.015-0.035-0.026-0.050l0 0.001c-0.006-0.006-0.006-0.019-0.013-0.026-0.006-0.013-0.013-0.026-0.026-0.037-0.005-0.013-0.011-0.019-0.018-0.032l-0.019-0.032c-0.006-0.011-0.019-0.024-0.026-0.037l-0.016-0.019-0.038-0.037-0.018-0.019c-0.013-0.013-0.026-0.024-0.045-0.037-0.006-0.006-0.019-0.013-0.024-0.019-0.013-0.013-0.026-0.019-0.038-0.032l-0.050-0.030c-0.006-0.006-0.013-0.006-0.019-0.013-0.024-0.013-0.056-0.024-0.088-0.037l-4.87-2.075c-0.102-0.045-0.222-0.071-0.347-0.071-0.366 0-0.679 0.223-0.812 0.541l-0.002 0.006c-0.044 0.102-0.070 0.22-0.070 0.345 0 0.366 0.222 0.68 0.539 0.815l0.006 0.002 4.299 1.814v19.462c0 1.845 1.382 3.37 3.163 3.6-0.319 0.525-0.508 1.161-0.508 1.84 0 1.977 1.601 3.58 3.577 3.584h0c1.974-0.007 3.573-1.605 3.581-3.578v-0.001c0-0.656-0.176-1.282-0.493-1.808h7.981c-0.32 0.533-0.494 1.152-0.494 1.808 0.002 1.977 1.605 3.58 3.582 3.581h0c1.975-0.007 3.574-1.606 3.581-3.58v-0.001c-0.006-1.975-1.606-3.575-3.58-3.582h-16.758c-1.024 0-1.856-0.837-1.856-1.856v-2.406c0.544 0.307 1.181 0.488 1.856 0.488zM14.026 28.406c-0.042 0.965-0.835 1.732-1.806 1.732s-1.764-0.767-1.806-1.728l-0-0.004c0-0.994 0.813-1.806 1.806-1.806 0.992 0 1.806 0.813 1.806 1.806zM28.194 28.406c-0.042 0.965-0.835 1.732-1.806 1.732s-1.764-0.767-1.806-1.728l-0-0.004c0-0.994 0.813-1.806 1.808-1.806 0.992 0 1.805 0.813 1.805 1.806zM27.237 19.294h-17.632c-1.024 0-1.856-0.838-1.856-1.856v-9.603l21.344 2.938v6.651c0 1.037-0.837 1.869-1.856 1.869z"></path>
</symbol>
<symbol id="icon-mail" viewBox="0 0 32 32">
<path d="M1.6 16.4v10.8h28.8v-21.6h-28.8v10.8zM28.8 7.36c-0.080 0.56-2.96 2.96-6.4 5.28l-6.4 4.32-6.4-4.32c-3.44-2.32-6.32-4.72-6.4-5.28 0-0.72 3.040-0.96 12.8-0.96s12.8 0.24 12.8 0.96zM4.96 12c0.4 0 2.8 1.44 5.2 3.2 2.48 1.76 5.12 3.2 5.84 3.2s3.36-1.44 5.84-3.2c2.4-1.76 4.8-3.2 5.2-3.2 0.48 0 1.040-0.48 1.2-1.040 0.24-0.48 0.48 2.72 0.48 7.2l0.080 8.24h-25.6l0.080-8.24c0-4.48 0.24-7.68 0.48-7.2 0.16 0.56 0.72 1.040 1.2 1.040z"></path>
</symbol>
<symbol id="icon-mark" viewBox="0 0 32 32">
<path d="M11.44 3.68c-2.64 1.28-5.040 5.28-5.040 8.24 0 0.96 0.56 3.040 1.2 4.72 1.6 3.68 7.6 12.96 8.4 12.96s6.8-9.28 8.4-12.96c2.32-5.68 0.8-10.72-4.080-13.040-3.2-1.52-5.68-1.52-8.88 0.080zM19.2 5.84c0 0.4 0.4 0.4 0.8 0.16 0.48-0.32 0.72-0.080 0.64 0.56-0.16 0.56 0.24 0.96 0.8 0.8 0.64-0.080 0.88 0.16 0.56 0.64-0.24 0.4-0.24 0.8 0.16 0.8 0.32 0 0.64 1.76 0.56 3.92 0 2.96-0.72 5.040-2.8 8.64-1.52 2.56-3.28 4.64-3.92 4.64s-2.4-2.080-3.92-4.64c-2.080-3.6-2.8-5.68-2.8-8.64-0.080-2.16 0.24-3.92 0.56-3.92 0.4 0 0.4-0.4 0.080-0.96s-0.24-0.64 0.32-0.32c0.48 0.32 1.28-0.080 1.84-0.88 0.56-0.96 1.84-1.44 4-1.44 1.68 0 3.12 0.32 3.12 0.64z"></path>
</symbol>
<symbol id="icon-phone" viewBox="0 0 32 32">
<path d="M5.28 4.96c-0.64 1.040-1.44 2.8-1.68 3.92-1.6 6.4 13.12 21.12 19.52 19.52 5.84-1.44 7.28-4.96 3.44-8.64-2.72-2.56-4.24-2.72-6.16-0.56-2 2.24-3.36 2-6.48-1.12s-3.36-4.48-1.12-6.48c2.16-1.92 2-3.44-0.56-6.16s-5.36-2.88-6.96-0.48zM11.2 6.8c1.040 1.12 1.68 2.24 1.36 2.48-0.24 0.24-1.36-0.48-2.48-1.68-1.2-1.28-2.080-1.92-2.080-1.52s0.72 1.36 1.6 2.16c1.92 1.6 2 2.4 0.4 3.76-2 1.6-1.44 3.040 2.8 7.2 4.16 4.24 5.6 4.8 7.2 2.8 1.36-1.6 2.16-1.52 3.76 0.4 0.8 0.88 1.76 1.6 2.16 1.6s-0.24-0.88-1.52-2.080c-1.2-1.12-1.92-2.24-1.68-2.56 0.32-0.24 1.44 0.4 2.56 1.52 2.4 2.48 1.92 4.24-1.44 5.44-3.040 1.12-7.36-0.96-12.24-5.92-4.88-4.88-7.040-9.28-5.92-12.16 0.72-2 2-3.36 3.2-3.44 0.24 0 1.28 0.88 2.32 2z"></path>
</symbol>
<symbol id="icon-telegram" viewBox="0 0 32 32">
<path d="M28.205 4.394c-0.272 0.012-0.542 0.084-0.79 0.18h-0.001c-0.242 0.094-1.794 0.738-4.057 1.677s-5.204 2.162-8.12 3.374c-251.451 95.040-255.268 96.662-259.086 98.284l247.548-93.483s-0.32 0.105-0.64 0.321c-0.16 0.108-0.328 0.246-0.461 0.438s-0.226 0.455-0.19 0.737c0.064 0.508 0.411 0.841 0.698 1.041s0.561 0.294 0.561 0.294l0.003 0.002 5.606 1.853c0.092 0.321 1.59 5.538 1.944 6.64 0.185 0.577 0.356 0.897 0.516 1.098 0.080 0.101 0.159 0.172 0.238 0.221 0.034 0.021 0.068 0.035 0.101 0.048 0.005 0.002 0.011 0.006 0.016 0.008 0.012 0.004 0.018 0.004 0.032 0.007 0.528 0.195 0.974-0.145 0.974-0.145l0.013-0.010 3.843-3.381 5.684 4.558 0.050 0.022c0.912 0.393 1.666 0.177 2.104-0.169 0.263-0.211 0.472-0.479 0.61-0.785l0.005-0.013 0.014-0.035 4.1-20.738c0.1-0.444 0.11-0.816 0.024-1.136s-0.29-0.58-0.542-0.726c-0.252-0.146-0.524-0.194-0.795-0.183zM28.226 5.208c0.159-0.007 0.294 0.015 0.373 0.061s0.131 0.098 0.17 0.244c0.040 0.145 0.049 0.39-0.032 0.748l-0.002 0.006-4.084 20.658c-0.006 0.014-0.111 0.261-0.36 0.458-0.251 0.198-0.592 0.345-1.261 0.068l-9.136-7.326c-0.073-0.077-0.176-0.124-0.29-0.124-0.002 0-0.004 0-0.006 0h0c-0.001-0-0.003-0-0.005-0-0.217 0-0.394 0.173-0.4 0.39v0l-1.041 5.58c-0.054-0.118-0.113-0.27-0.163-0.426l-0.009-0.034c-0.322-1.006-1.772-6.040-1.915-6.535l14.339-9.284c0.043 0.179 0.201 0.31 0.39 0.31 0.002 0 0.003 0 0.005-0h-0c0.001 0 0.003 0 0.005 0 0.221 0 0.4-0.179 0.4-0.4 0-0.031-0.003-0.061-0.010-0.089l0.001 0.003c0.011-0.122 0-0.243-0.053-0.362-0.086-0.193-0.29-0.311-0.436-0.338-0.29-0.055-0.48 0.051-0.48 0.051l-0.040 0.015-14.643 9.482-5.614-1.856c-0.14-0.055-0.26-0.121-0.371-0.199l0.005 0.004c-0.188-0.132-0.338-0.302-0.362-0.486-0.008-0.064 0.004-0.108 0.055-0.181s0.144-0.159 0.251-0.231c0.213-0.144 0.448-0.226 0.448-0.226l0.013-0.005 0.013-0.006s5.73-2.385 11.562-4.811c2.916-1.212 5.858-2.434 8.12-3.373s3.878-1.607 4.041-1.67c0.154-0.062 0.332-0.102 0.517-0.112l0.004-0zM23.68 10.28l-0.32 0.161-0.064 0.353 0.246 0.262 0.138 0.024 0.32-0.16 0.063-0.353-0.244-0.262-0.139-0.025zM22.56 11.36l-0.32 0.16-0.064 0.354 0.245 0.262 0.139 0.025 0.32-0.161 0.063-0.352-0.245-0.262-0.138-0.025zM21.44 12.44l-0.32 0.161-0.063 0.352 0.244 0.262 0.139 0.025 0.32-0.16 0.064-0.354-0.245-0.262-0.139-0.025zM20.32 13.52l-0.321 0.16-0.062 0.353 0.244 0.262 0.139 0.025 0.32-0.161 0.064-0.352-0.246-0.263-0.138-0.024zM19.2 14.6l-0.32 0.161-0.064 0.352 0.244 0.262 0.139 0.025 0.32-0.16 0.064-0.353-0.244-0.262-0.139-0.025zM18.080 15.68l-0.321 0.161-0.063 0.353 0.246 0.262 0.138 0.024 0.321-0.16 0.062-0.353-0.244-0.262-0.139-0.025zM16.96 16.76l-0.32 0.16-0.064 0.354 0.245 0.262 0.139 0.025 0.32-0.161 0.063-0.352-0.245-0.262-0.138-0.025zM15.84 17.84l-0.32 0.161-0.063 0.352 0.245 0.262 0.138 0.025 0.32-0.16 0.064-0.354-0.245-0.262-0.139-0.025zM14.72 18.92l-0.321 0.16-0.062 0.353 0.244 0.262 0.139 0.025 0.32-0.161 0.064-0.353-0.246-0.262-0.138-0.024zM13.87 21.13l2.448 1.962-3.366 2.961 0.919-4.924z"></path>
</symbol>
<symbol id="icon-vase" viewBox="0 0 32 32">
<path d="M23.714 8.361c-1.014-0.911-2.048-1.227-2.555-1.334v-4.107l0.747-0.715c0.444-0.069 0.779-0.448 0.78-0.905v-0.384c-0.001-0.506-0.41-0.916-0.916-0.916h-11.536c-0.506 0.001-0.916 0.41-0.916 0.916v0.384c0 0.457 0.337 0.836 0.777 0.903l0.746 0.716v4.107c-0.507 0.107-1.543 0.423-2.555 1.334-1.259 1.13-2.725 3.436-2.573 8 0.152 4.491 1.557 8.187 2.709 10.498 0.918 1.839 1.809 3.096 2.237 3.659-0.164 0.156-0.266 0.376-0.266 0.619v0c0 0.477 0.388 0.863 0.863 0.863h9.49c0.475 0 0.863-0.386 0.863-0.863 0-0.243-0.104-0.462-0.266-0.619 0.428-0.562 1.319-1.819 2.237-3.659 1.152-2.311 2.557-6.007 2.709-10.498 0.152-4.564-1.314-6.87-2.573-8zM10.234 1.518c-0 0-0 0-0 0-0.12 0-0.218-0.097-0.218-0.218 0 0 0 0 0 0v0-0.384c0-0.122 0.098-0.218 0.218-0.218h11.535c0.12 0 0.218 0.096 0.218 0.218v0.384c0 0 0 0 0 0 0 0.12-0.097 0.218-0.218 0.218-0 0-0 0-0 0h0zM11.539 5.234v-0.961h8.922v0.96zM20.461 5.932v1.042h-8.922v-1.042zM11.539 3.575v-0.805c-0-0.099-0.042-0.189-0.109-0.252l-0-0-0.315-0.302h9.768l-0.314 0.302c-0.067 0.063-0.108 0.152-0.109 0.251v0.805zM8.72 8.909c1.157-1.057 2.366-1.223 2.488-1.237h9.584c0.127 0.016 1.333 0.182 2.49 1.237 0.712 0.65 1.264 1.509 1.652 2.554-0.523 0.157-0.861 0.482-1.166 0.778-0.391 0.377-0.7 0.677-1.359 0.677-0.661 0-0.97-0.299-1.361-0.677-0.421-0.411-0.902-0.875-1.843-0.875-0.943 0-1.422 0.464-1.845 0.875-0.391 0.377-0.7 0.677-1.359 0.677-0.661 0-0.968-0.299-1.359-0.677-0.423-0.411-0.903-0.875-1.845-0.875-0.943 0-1.422 0.464-1.845 0.875-0.391 0.377-0.7 0.677-1.359 0.677s-0.968-0.299-1.359-0.677c-0.305-0.296-0.643-0.621-1.166-0.778 0.386-1.045 0.939-1.904 1.652-2.554zM6.85 12.125c0.373 0.109 0.622 0.347 0.898 0.616 0.423 0.409 0.904 0.873 1.845 0.873 0.943 0 1.422-0.462 1.845-0.873 0.391-0.379 0.698-0.677 1.359-0.677 0.659 0 0.968 0.298 1.359 0.677 0.423 0.411 0.902 0.873 1.845 0.873 0.941 0 1.422-0.462 1.843-0.873 0.391-0.379 0.7-0.677 1.361-0.677 0.659 0 0.968 0.298 1.359 0.677 0.422 0.411 0.902 0.873 1.845 0.873 0.941 0 1.421-0.462 1.842-0.873 0.279-0.268 0.527-0.505 0.901-0.614 0.214 0.754 0.353 1.588 0.414 2.496-0.73 0.102-1.148 0.493-1.521 0.845-0.386 0.364-0.72 0.68-1.411 0.68s-1.029-0.316-1.42-0.682c-0.436-0.407-0.93-0.87-1.896-0.87-0.968 0-1.461 0.462-1.897 0.87-0.391 0.366-0.728 0.682-1.419 0.682-0.693 0-1.030-0.316-1.422-0.682-0.436-0.407-0.928-0.87-1.894-0.87-0.968 0-1.461 0.462-1.896 0.87-0.391 0.366-0.729 0.682-1.422 0.682-0.689 0-1.023-0.316-1.409-0.68-0.373-0.352-0.791-0.743-1.521-0.843 0.061-0.911 0.2-1.746 0.414-2.5zM20.745 31.302h-9.49c-0.003 0-0.006 0-0.009 0-0.090 0-0.164-0.073-0.164-0.164s0.073-0.164 0.164-0.164c0.003 0 0.006 0 0.009 0l-0-0h9.49c0.003-0 0.006-0 0.009-0 0.090 0 0.164 0.073 0.164 0.164s-0.073 0.164-0.164 0.164c-0.003 0-0.006-0-0.009-0l0 0zM20.643 30.277h-9.286c-0.236-0.3-0.866-1.136-1.602-2.418h12.495c-0.736 1.279-1.37 2.118-1.607 2.418zM22.638 27.163h-13.268c-0.096-0.182-0.193-0.372-0.291-0.566h13.85c-0.098 0.194-0.195 0.384-0.291 0.566zM23.266 25.898h-14.526c-0.902-1.937-1.771-4.428-2.149-7.327 0.431 0.098 0.718 0.352 1.034 0.639 0.45 0.405 0.957 0.866 1.902 0.866 0.948 0 1.432-0.464 1.859-0.873 0.395-0.378 0.707-0.679 1.377-0.679 0.667 0 0.98 0.3 1.377 0.679 0.425 0.409 0.909 0.873 1.859 0.873 0.948 0 1.432-0.464 1.859-0.873 0.395-0.378 0.707-0.679 1.377-0.679 0.668 0 0.981 0.3 1.377 0.679 0.427 0.409 0.911 0.873 1.859 0.873 0.943 0 1.452-0.461 1.902-0.866 0.318-0.287 0.602-0.543 1.032-0.641-0.389 2.99-1.295 5.509-2.139 7.328zM25.59 16.337c-0.020 0.569-0.056 1.092-0.109 1.61l0.008-0.101c-0.746 0.091-1.189 0.489-1.584 0.847-0.407 0.368-0.759 0.686-1.434 0.686-0.67 0-0.98-0.3-1.376-0.679-0.427-0.409-0.911-0.871-1.859-0.871-0.95 0-1.434 0.463-1.859 0.871-0.396 0.378-0.709 0.679-1.377 0.679-0.67 0-0.982-0.3-1.377-0.679-0.427-0.409-0.911-0.871-1.859-0.871-0.95 0-1.434 0.463-1.861 0.871-0.395 0.378-0.707 0.679-1.375 0.679-0.675 0-1.027-0.318-1.434-0.686-0.394-0.358-0.838-0.756-1.584-0.845-0.044-0.417-0.080-0.941-0.099-1.469l-0.001-0.042c-0.006-0.177-0.010-0.384-0.010-0.593 0-0.148 0.002-0.295 0.005-0.441l-0 0.022c0.471 0.086 0.755 0.352 1.071 0.65 0.432 0.409 0.923 0.872 1.891 0.872 0.966 0 1.461-0.463 1.897-0.87 0.389-0.366 0.727-0.682 1.419-0.682 0.691 0 1.029 0.316 1.42 0.682 0.436 0.407 0.928 0.87 1.896 0.87 0.966 0 1.461-0.463 1.896-0.87 0.391-0.366 0.729-0.682 1.42-0.682s1.029 0.316 1.419 0.682c0.436 0.407 0.931 0.87 1.897 0.87 0.968 0 1.457-0.463 1.889-0.872 0.318-0.3 0.6-0.564 1.073-0.65 0.007 0.329 0.007 0.666-0.005 1.013z"></path>
</symbol>
<symbol id="icon-mug" viewBox="0 0 32 32">
<path d="M31.029 7.264h-30.057c-0.537 0.001-0.971 0.436-0.971 0.972 0 0 0 0 0 0v0 2.503c0 5.174 3.207 9.818 8.016 11.664v0.861c0.001 0.812 0.659 1.47 1.471 1.471h13.025c0.812-0.001 1.471-0.659 1.472-1.471v-0.861c4.809-1.847 8.016-6.491 8.016-11.664v-2.503c-0.001-0.536-0.435-0.971-0.971-0.971h-0zM22.512 23.797h-13.025c-0.293 0-0.532-0.24-0.532-0.532v-0.532h14.089v0.532c0 0.293-0.239 0.532-0.532 0.532zM31.061 10.74c0 4.888-3.095 9.266-7.702 10.895-0.089 0.032-0.163 0.087-0.217 0.158l-0.001 0.001h-14.282c-0.055-0.072-0.129-0.127-0.215-0.158l-0.003-0.001c-4.608-1.629-7.702-6.007-7.702-10.895v-2.503c0-0.018 0.014-0.032 0.032-0.032h30.057c0.018 0 0.032 0.014 0.032 0.032z"></path>
<path d="M3.966 15.035c-0.129-0.249-0.27-0.564-0.395-0.887l-0.023-0.069c-0.069-0.179-0.239-0.305-0.439-0.305-0.259 0-0.469 0.21-0.469 0.469 0 0.059 0.011 0.116 0.031 0.168l-0.001-0.003c0.132 0.357 0.288 0.709 0.459 1.050 0.080 0.154 0.238 0.257 0.42 0.257 0.077 0 0.149-0.018 0.213-0.051l-0.003 0.001c0.232-0.116 0.325-0.4 0.207-0.631zM29.527 9.268c-0.259 0-0.47 0.211-0.47 0.47v1.002c0 0.261 0.211 0.47 0.47 0.47s0.47-0.209 0.47-0.47v-1.002c0-0.259-0.21-0.47-0.47-0.47zM9.311 19.744c-1.823-0.655-3.339-1.792-4.441-3.258l-0.018-0.024c-0.087-0.105-0.217-0.171-0.363-0.171-0.26 0-0.47 0.21-0.47 0.47 0 0.099 0.030 0.19 0.082 0.266l-0.001-0.002c1.23 1.636 2.895 2.885 4.823 3.582l0.073 0.023c0.047 0.017 0.1 0.027 0.156 0.027 0.204 0 0.378-0.13 0.443-0.311l0.001-0.003c0.017-0.046 0.027-0.1 0.027-0.156 0-0.203-0.129-0.376-0.309-0.442l-0.003-0.001zM29.418 12.284c-0.028-0.006-0.061-0.010-0.094-0.010-0.226 0-0.415 0.159-0.46 0.372l-0.001 0.003c-0.446 2.105-1.529 3.908-3.033 5.245l-0.010 0.009c-0.098 0.086-0.16 0.212-0.16 0.352 0 0.259 0.21 0.469 0.469 0.469 0.001 0 0.002 0 0.003 0h-0c0.109 0 0.221-0.039 0.311-0.118 1.662-1.479 2.85-3.458 3.328-5.7l0.012-0.069c0.006-0.028 0.009-0.060 0.009-0.093 0-0.226-0.159-0.415-0.372-0.46l-0.003-0.001z"></path>
</symbol>
<symbol id="icon-plate" viewBox="0 0 32 32">
<path d="M16 5.234c2.971 0 5.664 1.205 7.612 3.153 1.948 1.943 3.154 4.63 3.154 7.599 0 0.005 0 0.009 0 0.014v-0.001c0 2.971-1.206 5.664-3.154 7.612-1.943 1.948-4.63 3.154-7.599 3.154-0.005 0-0.009 0-0.014 0h0.001c-2.971 0-5.664-1.206-7.612-3.154-1.948-1.944-3.154-4.631-3.154-7.6 0-0.004 0-0.009 0-0.013v0.001c0-2.971 1.205-5.664 3.154-7.612 1.944-1.948 4.631-3.154 7.6-3.154 0.004 0 0.008 0 0.013 0h-0.001zM21.893 17.839c0.051-0.165 0.202-0.283 0.38-0.283 0.040 0 0.079 0.006 0.116 0.017l-0.003-0.001c0.165 0.051 0.282 0.202 0.282 0.38 0 0.040-0.006 0.078-0.017 0.114l0.001-0.003c-0.356 1.178-0.946 2.152-1.664 2.905-0.788 0.822-1.733 1.375-2.693 1.625-0.029 0.008-0.063 0.012-0.098 0.012-0.184 0-0.338-0.124-0.384-0.293l-0.001-0.003c-0.008-0.030-0.013-0.064-0.013-0.1 0-0.183 0.125-0.337 0.294-0.382l0.003-0.001c0.826-0.214 1.638-0.693 2.32-1.407 0.635-0.661 1.159-1.53 1.477-2.582zM16 0c4.42 0 8.42 1.791 11.312 4.688 2.896 2.896 4.688 6.896 4.688 11.312 0 4.42-1.791 8.42-4.688 11.312-2.896 2.896-6.896 4.688-11.312 4.688-4.42 0-8.42-1.791-11.312-4.688-2.896-2.893-4.688-6.893-4.688-11.312s1.791-8.42 4.688-11.312c2.893-2.896 6.893-4.688 11.312-4.688zM26.573 5.427c-2.697-2.706-6.427-4.38-10.548-4.38-0.009 0-0.018 0-0.027 0h0.001c-4.13 0-7.867 1.675-10.573 4.38-2.706 2.697-4.38 6.427-4.38 10.548 0 0.009 0 0.018 0 0.026v-0.001c0 4.13 1.675 7.867 4.38 10.573s6.446 4.38 10.573 4.38c4.13 0 7.867-1.675 10.573-4.38s4.38-6.446 4.38-10.573c0-4.13-1.671-7.867-4.38-10.573zM22.977 9.023c-1.787-1.786-4.254-2.891-6.977-2.891-0.004 0-0.008 0-0.012 0-2.721 0-5.184 1.105-6.965 2.891l-0 0c-1.786 1.787-2.891 4.254-2.891 6.977s1.105 5.193 2.891 6.977c1.787 1.786 4.254 2.891 6.977 2.891s5.193-1.105 6.977-2.891c1.786-1.787 2.891-4.254 2.891-6.977s-1.105-5.193-2.891-6.977z"></path>
</symbol>
</defs>
</svg>
