<svg xmlns="http://www.w3.org/2000/svg" viewBox="0 0 70 70">
  <path style="stroke:none;fill-rule:nonzero;fill:#000;fill-opacity:1" d="M67.875 15.89H2.125A2.127 2.127 0 0 0 0 18.017v5.476C0 34.81 7.016 44.97 17.535 49.008v1.883a3.222 3.222 0 0 0 3.219 3.218h28.492a3.222 3.222 0 0 0 3.219-3.218v-1.883C62.985 44.968 70 34.808 70 23.492v-5.476a2.127 2.127 0 0 0-2.125-2.125ZM49.246 52.056H20.754c-.64 0-1.164-.524-1.164-1.164v-1.164h30.82v1.164c0 .64-.523 1.164-1.164 1.164Zm18.7-28.563c0 10.692-6.77 20.27-16.848 23.832a1.019 1.019 0 0 0-.477.348H19.38a1.019 1.019 0 0 0-.477-.348C8.824 43.762 2.055 34.184 2.055 23.492v-5.476c0-.04.03-.07.07-.07h65.75c.04 0 .07.03.07.07Zm0 0"/>
  <path style="stroke:none;fill-rule:nonzero;fill:#000;fill-opacity:1" d="M8.676 32.89a21.98 21.98 0 0 1-.914-2.09 1.025 1.025 0 1 0-1.922.72c.289.78.629 1.55 1.004 2.296a1.03 1.03 0 0 0 1.379.454c.507-.254.71-.875.453-1.38ZM64.59 20.273c-.567 0-1.028.461-1.028 1.028v2.191c0 .57.461 1.028 1.028 1.028.566 0 1.027-.457 1.027-1.028v-2.191c0-.567-.46-1.028-1.027-1.028ZM20.367 43.191a20.808 20.808 0 0 1-9.754-7.18 1.028 1.028 0 0 0-1.644 1.231 22.885 22.885 0 0 0 10.71 7.887 1.03 1.03 0 0 0 1.313-.629 1.028 1.028 0 0 0-.625-1.309ZM64.352 26.871a1.03 1.03 0 0 0-1.215.8 21.066 21.066 0 0 1-6.657 11.493 1.026 1.026 0 0 0 .684 1.797c.238 0 .484-.086.68-.258a23.152 23.152 0 0 0 7.308-12.621 1.028 1.028 0 0 0-.8-1.21Zm0 0"/>
</svg>
